<?xml version="1.0" encoding="utf-8"?>
<!-- Generator: Adobe Illustrator 27.4.0, SVG Export Plug-In . SVG Version: 6.00 Build 0)  -->
<!DOCTYPE svg PUBLIC "-//W3C//DTD SVG 1.1//EN" "http://www.w3.org/Graphics/SVG/1.1/DTD/svg11.dtd" [
	<!ENTITY ns_extend "http://ns.adobe.com/Extensibility/1.0/">
	<!ENTITY ns_ai "http://ns.adobe.com/AdobeIllustrator/10.0/">
	<!ENTITY ns_graphs "http://ns.adobe.com/Graphs/1.0/">
	<!ENTITY ns_vars "http://ns.adobe.com/Variables/1.0/">
	<!ENTITY ns_imrep "http://ns.adobe.com/ImageReplacement/1.0/">
	<!ENTITY ns_sfw "http://ns.adobe.com/SaveForWeb/1.0/">
	<!ENTITY ns_custom "http://ns.adobe.com/GenericCustomNamespace/1.0/">
	<!ENTITY ns_adobe_xpath "http://ns.adobe.com/XPath/1.0/">
]>
<svg version="1.1" id="Слой_1" xmlns:x="&ns_extend;" xmlns:i="&ns_ai;" xmlns:graph="&ns_graphs;"
	 xmlns="http://www.w3.org/2000/svg" xmlns:xlink="http://www.w3.org/1999/xlink" x="0px" y="0px" viewBox="0 0 144.8 153.5"
	 style="enable-background:new 0 0 144.8 153.5;" xml:space="preserve">
<style type="text/css">
	.st0{fill:#EAA700;}
	.st1{fill:#FFC31C;}
	.st2{fill:#83A013;}
	.st3{fill:#728910;}
	.st4{fill:#B5C328;}
	.st5{fill:#6D3323;}
	.st6{fill:#FFFFFF;}
	.st7{fill:#EA8B00;}
	.st8{clip-path:url(#SVGID_00000147909706655027874910000006993382227563088031_);fill:#FFB818;}
	.st9{clip-path:url(#SVGID_00000088105474716282610700000012006541411141188740_);fill:#FFFFFF;}
	.st10{clip-path:url(#SVGID_00000124129671531847441090000006627023565258092688_);fill:#FFFFFF;}
	
		.st11{opacity:0.39;clip-path:url(#SVGID_00000165198506194262738970000013687438244371868332_);fill:#FFFFFF;enable-background:new    ;}
	.st12{fill:#A55438;}
</style>
<metadata>
	<sfw  xmlns="&ns_sfw;">
		<slices></slices>
		<sliceSourceBounds  bottomLeftOrigin="true" height="68.2" width="96.1" x="30.8" y="81.5"></sliceSourceBounds>
	</sfw>
</metadata>
<g>
	<path class="st0" d="M72.6,102.4c-0.1,2.3-1.2,5.4,0.9,6.1s3.6,1.8,3.3,3.1c-0.4,1.3,1.2,1.7,1.8,0.9c0.8-1.2,1-3-0.8-4.5
		c0,0,3,0.4,3.3,2.4c0.2,1.1,0.6,1.9,1.2,1.8c1-0.2,1.2-1.6,0.3-3.2c-0.9-1.6-2.7-3.1-5.9-3c-2.1,0-0.3-4.3-0.3-4.3L72.6,102.4z"/>
	<path class="st1" d="M64.4,102.5c-0.1,2.3-1.2,5.4,0.9,6.1s3.6,1.8,3.3,3.1c-0.4,1.3,1.2,1.7,1.8,0.9c0.8-1.2,1-3-0.8-4.5
		c0,0,3,0.4,3.3,2.4c0.2,1.1,0.6,1.9,1.2,1.8c1-0.2,1.2-1.6,0.3-3.2c-0.9-1.6-2.7-3.1-5.9-3c-2.1,0-0.3-4.3-0.3-4.3L64.4,102.5z"/>
	<path class="st2" d="M96.2,65.7c2.5-6,3.8-10.2-3.1-16.9c-6.8-6.7-23-4.8-29,3.8c-4.4,6.3-4.4,12.8-4.9,15.7c0,0-10.6,4.8-14.7,7.7
		S26.3,91.6,27.9,94.5s18.9,8.4,29.8,8.4c9.3,0,24.5,1.1,34.6-10.2C102.2,81.9,96.2,65.7,96.2,65.7z"/>
	<path class="st3" d="M58.6,75.3c7.7-4.8,17.6-5.3,20.2,1.6C81.5,83.8,74,91.2,60,95c-9.4,2.6-22.2,3.7-22.9,0.2
		C36.6,91.7,52.4,79.2,58.6,75.3z"/>
	<path class="st4" d="M57.2,73c7.7-4.8,17.6-5.3,20.2,1.6c2.7,6.9-4.8,14.3-18.8,18.1c-9.4,2.6-22.2,3.7-22.9,0.2S51,76.9,57.2,73z"
		/>
	<path class="st5" d="M93.2,65.5c0.4-0.8,8-0.9,9-1s-4.8,5.3-5.7,5.6C95.5,70.4,92.2,67.8,93.2,65.5z"/>
	<circle cx="80.6" cy="59.1" r="4.9"/>
	<circle class="st6" cx="80.1" cy="57.8" r="2.4"/>
	<g>
		
			<ellipse id="SVGID_00000068665341217197946370000009986032000936112768_" transform="matrix(0.5685 -0.8227 0.8227 0.5685 -12.175 121.3667)" class="st7" cx="109.6" cy="72.3" rx="13.3" ry="12.6"/>
	</g>
	<g>
		<defs>
			
				<ellipse id="SVGID_1_" transform="matrix(0.9354 -0.3536 0.3536 0.9354 -17.7214 43.8555)" cx="111.1" cy="70.4" rx="12.6" ry="13.3"/>
		</defs>
		<clipPath id="SVGID_00000084521573376975971200000007557684856887545479_">
			<use xlink:href="#SVGID_1_"  style="overflow:visible;"/>
		</clipPath>
		
			<ellipse transform="matrix(0.5685 -0.8227 0.8227 0.5685 -10.6344 119.5093)" style="clip-path:url(#SVGID_00000084521573376975971200000007557684856887545479_);fill:#FFB818;" cx="108.6" cy="69.9" rx="13.3" ry="12.6"/>
	</g>
	<g>
		<defs>
			
				<ellipse id="SVGID_00000055688048805893990260000001075306254843488153_" transform="matrix(0.5685 -0.8227 0.8227 0.5685 -12.175 121.3667)" cx="109.6" cy="72.3" rx="13.3" ry="12.6"/>
		</defs>
		<clipPath id="SVGID_00000072970517095528275730000007743250695142628229_">
			<use xlink:href="#SVGID_00000055688048805893990260000001075306254843488153_"  style="overflow:visible;"/>
		</clipPath>
		<path style="clip-path:url(#SVGID_00000072970517095528275730000007743250695142628229_);fill:#FFFFFF;" d="M99.9,69.6
			c0,0-1.3,3.3,0,6.3c1.3,3.1,4.8,5.8,9.4,4.8c4.5-0.9,7.1-4.6,8.1-7.2c0,0-2.1,2.9-4.6,4.5c-1.9,1.2-4.4,1.5-5.5,1.4
			C102.4,78.9,99.5,74.4,99.9,69.6z"/>
	</g>
	<g>
		<defs>
			
				<ellipse id="SVGID_00000175288035557347316910000016487546420512706236_" transform="matrix(0.5685 -0.8227 0.8227 0.5685 -12.175 121.3667)" cx="109.6" cy="72.3" rx="13.3" ry="12.6"/>
		</defs>
		<clipPath id="SVGID_00000183242477123369020340000006635644642686399623_">
			<use xlink:href="#SVGID_00000175288035557347316910000016487546420512706236_"  style="overflow:visible;"/>
		</clipPath>
		<path style="clip-path:url(#SVGID_00000183242477123369020340000006635644642686399623_);fill:#FFFFFF;" d="M117.9,71.8
			c0,0,1.2-3.3-0.2-6.3s-5-5.6-9.5-4.6s-6.9,4.8-7.9,7.4c0,0,2-2.9,4.5-4.6c1.8-1.2,4.3-1.6,5.5-1.5C115.2,62.6,118.2,67,117.9,71.8
			z"/>
	</g>
	<g>
		<defs>
			
				<ellipse id="SVGID_00000082330195379885118420000011026971463416766363_" transform="matrix(0.5685 -0.8227 0.8227 0.5685 -12.175 121.3667)" cx="109.6" cy="72.3" rx="13.3" ry="12.6"/>
		</defs>
		<clipPath id="SVGID_00000046318879636724028500000001987464696148091055_">
			<use xlink:href="#SVGID_00000082330195379885118420000011026971463416766363_"  style="overflow:visible;"/>
		</clipPath>
		
			<polygon style="opacity:0.39;clip-path:url(#SVGID_00000046318879636724028500000001987464696148091055_);fill:#FFFFFF;enable-background:new    ;" points="
			91.5,77.4 121.7,65.4 120.7,62 90.5,69.6 		"/>
	</g>
	<path class="st12" d="M95.5,59.2c-1.5,0.3-3.8,5.5-2.3,6.3s9-0.3,9.8-0.9c0.7-0.5,0.5-1.1-1.5-2.9C99.4,59.8,95.9,59.1,95.5,59.2z"
		/>
</g>
</svg>
