<?xml version="1.0" encoding="utf-8"?>
<!-- Generator: Adobe Illustrator 27.4.0, SVG Export Plug-In . SVG Version: 6.00 Build 0)  -->
<!DOCTYPE svg PUBLIC "-//W3C//DTD SVG 1.1//EN" "http://www.w3.org/Graphics/SVG/1.1/DTD/svg11.dtd" [
	<!ENTITY ns_extend "http://ns.adobe.com/Extensibility/1.0/">
	<!ENTITY ns_ai "http://ns.adobe.com/AdobeIllustrator/10.0/">
	<!ENTITY ns_graphs "http://ns.adobe.com/Graphs/1.0/">
	<!ENTITY ns_vars "http://ns.adobe.com/Variables/1.0/">
	<!ENTITY ns_imrep "http://ns.adobe.com/ImageReplacement/1.0/">
	<!ENTITY ns_sfw "http://ns.adobe.com/SaveForWeb/1.0/">
	<!ENTITY ns_custom "http://ns.adobe.com/GenericCustomNamespace/1.0/">
	<!ENTITY ns_adobe_xpath "http://ns.adobe.com/XPath/1.0/">
]>
<svg version="1.1" id="Слой_1" xmlns:x="&ns_extend;" xmlns:i="&ns_ai;" xmlns:graph="&ns_graphs;"
	 xmlns="http://www.w3.org/2000/svg" xmlns:xlink="http://www.w3.org/1999/xlink" x="0px" y="0px" viewBox="0 0 144.8 153.5"
	 style="enable-background:new 0 0 144.8 153.5;" xml:space="preserve">
<style type="text/css">
	.st0{fill:#EAA700;}
	.st1{fill:#FFC31C;}
	.st2{fill:#D63636;}
	.st3{fill:#B20F0F;}
	.st4{fill:#D31818;}
	.st5{fill:#562418;}
	.st6{fill:#FFFFFF;}
	.st7{fill:#6D3323;}
	.st8{fill:#A55438;}
	.st9{fill:#FFB818;}
	.st10{fill:#914330;}
</style>
<metadata>
	<sfw  xmlns="&ns_sfw;">
		<slices></slices>
		<sliceSourceBounds  bottomLeftOrigin="true" height="80.7" width="106.5" x="27.2" y="76"></sliceSourceBounds>
	</sfw>
</metadata>
<g>
	<path class="st0" d="M62.2,81c-0.1,1.7-0.9,4,0.6,4.4s2.7,1.3,2.4,2.3s0.9,1.3,1.3,0.7c0.6-0.9,0.7-2.2-0.6-3.3
		c0,0,2.2,0.3,2.4,1.7c0.1,0.8,0.4,1.4,0.9,1.3c0.7-0.1,0.9-1.2,0.2-2.4c-0.7-1.2-2-2.2-4.3-2.2c-1.5,0-0.3-3.1-0.3-3.1L62.2,81z"/>
	<path class="st1" d="M56.3,81c-0.1,1.7-0.9,4,0.6,4.4s2.7,1.3,2.4,2.3s0.9,1.3,1.3,0.7c0.6-0.9,0.7-2.2-0.6-3.3
		c0,0,2.2,0.3,2.4,1.7c0.1,0.8,0.4,1.4,0.9,1.3c0.7-0.1,0.9-1.2,0.2-2.4c-0.7-1.2-2-2.2-4.3-2.2c-1.5,0-0.3-3.1-0.3-3.1L56.3,81z"/>
	<path class="st2" d="M85.3,54.2c2-4.7,2.9-8-2.4-13.2c-5.4-5.3-18-3.8-22.7,3c-3.4,4.9-3.4,10.1-3.8,12.3c0,0-8.3,3.8-11.5,6
		s-14.3,12.2-13,14.5s14.8,6.6,23.4,6.6c7.3,0,19.2,0.9,27.1-8C90,66.9,85.3,54.2,85.3,54.2z"/>
	<path class="st3" d="M55.6,60c6-3.7,13.8-4.2,15.8,1.3c2.1,5.4-3.7,11.2-14.7,14.2c-7.4,2-17.4,2.9-17.9,0.1
		C38.3,72.8,50.7,63,55.6,60z"/>
	<path class="st4" d="M54.5,58.1c6-3.7,13.8-4.2,15.8,1.3c2.1,5.4-3.7,11.2-14.7,14.2c-7.4,2-17.4,2.9-17.9,0.1S49.6,61.2,54.5,58.1
		z"/>
	<path class="st5" d="M82.7,52.2c0.3-0.6,6.3-0.7,7.1-0.7c0.8-0.1-3.7,4.2-4.5,4.4C84.6,56,81.9,54,82.7,52.2z"/>
	<circle cx="72" cy="48.1" r="3.9"/>
	<circle class="st6" cx="71.6" cy="47.1" r="1.9"/>
	<path class="st7" d="M84.5,47.3c-1.2,0.2-3,4.3-1.8,4.9s7.1-0.3,7.7-0.7c0.6-0.4,0.4-0.9-1.2-2.3S84.8,47.2,84.5,47.3z"/>
	<path class="st7" d="M93.4,96.2c0.1,1.7,0.9,4-0.6,4.4c-1.5,0.5-2.7,1.3-2.4,2.3s-0.9,1.3-1.3,0.7c-0.6-0.9-0.7-2.2,0.6-3.3
		c0,0-2.2,0.3-2.4,1.7c-0.1,0.8-0.4,1.4-0.9,1.3c-0.7-0.1-0.9-1.2-0.2-2.4c0.7-1.2,2-2.2,4.3-2.2c1.5,0,0.3-3.1,0.3-3.1L93.4,96.2z"
		/>
	<path class="st8" d="M99.3,96.2c0.1,1.7,0.9,4-0.6,4.4c-1.5,0.5-2.7,1.3-2.4,2.3s-0.9,1.3-1.3,0.7c-0.6-0.9-0.7-2.2,0.6-3.3
		c0,0-2.2,0.3-2.4,1.7c-0.1,0.8-0.4,1.4-0.9,1.3c-0.7-0.1-0.9-1.2-0.2-2.4c0.7-1.2,2-2.2,4.3-2.2c1.5,0,0.3-3.1,0.3-3.1L99.3,96.2z"
		/>
	<path class="st1" d="M76.2,69.4c-1.8-4.3-2.7-7.4,2.2-12.3c5-4.9,16.8-3.5,21.2,2.8c3.2,4.6,3.2,9.4,3.5,11.5c0,0,7.7,3.5,10.7,5.6
		s13.3,11.4,12.1,13.5s-13.8,6.2-21.8,6.2c-6.8,0-17.9,0.8-25.3-7.4C71.8,81.2,76.2,69.4,76.2,69.4z"/>
	<path class="st9" d="M103.6,76.4c-5.6-3.5-12.8-3.9-14.8,1.2c-1.9,5.1,3.5,10.4,13.7,13.2c6.9,1.9,16.2,2.7,16.7,0.1
		C119.7,88.4,108.1,79.3,103.6,76.4z"/>
	<path class="st0" d="M104.6,74.7c-5.6-3.5-12.8-3.9-14.8,1.2c-1.9,5.1,3.5,10.4,13.7,13.2c6.9,1.9,16.2,2.7,16.7,0.1
		C120.7,86.7,109.2,77.6,104.6,74.7z"/>
	<path class="st7" d="M78.3,69.2c-0.3-0.6-5.9-0.6-6.6-0.7c-0.7-0.1,3.5,3.9,4.2,4.1S79.1,70.9,78.3,69.2z"/>
	<circle cx="87.5" cy="64.6" r="3.6"/>
	<circle class="st6" cx="87.9" cy="63.6" r="1.7"/>
	<path class="st10" d="M76.7,64.7c1.1,0.2,2.8,4,1.6,4.6s-6.6-0.3-7.1-0.6s-0.4-0.8,1.1-2.2C73.8,65.1,76.4,64.6,76.7,64.7z"/>
	<path class="st5" d="M127.2,102c-2-1.6-4.3-2-6.6-2.7c1-0.1,2,0,3,0.1c0,0,0.1-0.1,0.2-0.1c1.4-0.2,2.6-0.7,3.9-1.3
		c-0.1-0.1-0.2-0.2-0.3-0.3c-1.2-1-2.8-1.5-4.1-2.1c-0.1,0-0.2-0.1-0.2-0.2c-0.6-0.1-1.2-0.2-1.8-0.2c1.5-0.6,3-1,4.6-1.4
		c0.1,0,0.2,0,0.3,0c0.2,0,0.6-0.3,0.4-0.6l-0.1-0.1c-2.5-1.7-5.6-2.2-8.5-2.5c-0.6-0.1-1.6-0.2-2.8-0.2c0.2-0.2,0.5-0.4,0.7-0.7
		c0.1-0.1,0.2-0.3,0.2-0.5c-2.5-0.5-4.9-1-7.4-0.6c-1.6,0.4-3.1,1-4.7,1.5c2-1.6,3.9-3.5,0.8-4.4c-2.4-0.7-5.4,0.6-7.8,2.3
		c0.7-1.2,1.3-2.4,1.9-3.6c0.1-0.3,0.1-0.8-0.3-0.8c-2.1-0.1-4.2,0.7-6,2.2c-2-0.1-4,0.1-5.8,0.7c-1.5,0.5-3,1.2-4.5,2
		c-1.4,0.9-1.5,0.7-0.1-0.5c0.7-0.7,1.5-1.4,2.2-2.1c0.2-0.2,0.5-0.8,0.1-1c-3.5-1.9-7.4,0.9-10.3,3.6c0.5-1.3,1-2.5,1.3-3.9
		c0.1-0.4-0.2-0.7-0.5-0.6c-2.3,0.6-4.6,2.5-6,4.9c-0.7-2.3-1.5-4.4-3.7-5.7c-0.3-0.2-0.8,0.3-0.7,0.6c0.3,1.8,0.6,3.5,0.8,5.3
		c-4.3-1.8-10-4.3-14.2-1.9c-0.1,0.1-0.3,0.2-0.3,0.4l0,0c-2.7-1.6-6.1-2.1-9-1c-0.4,0.1-1,0.9-0.6,1.3c0.5,0.5,0.9,1,1.4,1.5
		c-3.5-0.4-7.3,0.5-10,2.7c-0.3,0.2-0.9,1.1-0.3,1.4c0.4,0.2,0.9,0.5,1.3,0.7c-1.9,0.9-3.7,2-5.2,3.1c-0.3,0.3-0.9,1.1-0.3,1.4
		c0.8,0.4,1.6,0.8,2.4,1c-2.1,1.3-4.3,3-4.8,5.5c-0.1,0.4,0.1,0.6,0.5,0.6c0.2,0,0.5-0.1,0.7-0.1c-1.1,1-2.1,2.2-2.6,3.5
		c-0.5,1.2,0.3,1.6,1.1,1.6c0.1,0,0.2,0.1,0.3,0c0.5-0.1,0.9-0.2,1.4-0.3c0.3-0.1,0.7-0.2,1-0.3c-1,0.9-1.6,2-1.2,2.9
		c0.7,1.5,4.6,0.9,5.6,0.8c1.6-0.1,3.1-0.3,4.5-0.6c-0.7,0.7-1.3,1.5-1.8,2.2c-0.2,0.3-0.3,0.9,0.2,0.9c4,0.8,8.2,0,12.1-1.5
		c0,0.1,0,0.1,0.1,0.2c1,2.2,5.2,1.3,8.7-0.3c-0.3,0.3-0.5,0.7-0.8,1.1c-0.2,0.2-0.3,0.7,0,0.8c1.9,0.9,4-0.2,5.7-0.9
		c1.3-0.6,2.6-1.1,3.8-1.8c-0.6,1.3-0.8,2.7-0.5,4.1c0.2,0.8,1.2,0.1,1.4-0.2c1.4-1.9,2.9-3.4,4.7-4.5c-0.5,1.3-0.9,2.6-1,4
		c0,0.2,0.1,0.4,0.3,0.4c2.4,0.2,4.4-0.8,6.6-1.9c1.5-0.8,3.1-1.4,4.5-2.3c-0.7,1.5-1.1,3.3,0.6,3.5c1.7,0.2,4-1.5,5.5-3.2
		c0.9,2,2.3,3.7,4.1,2.9c1.4-0.6,1.3-2.5,0.9-4.2c2.2,1.9,4.3,4.4,7.2,3.4c0.4-0.1,0.7-0.6,0.6-1c-0.1-0.3-0.2-0.6-0.3-0.8
		c2.1,1.3,4.5,2,6.8,1.5c0,0,0.1,0,0.1-0.1c1.4,1,3,1.7,4.7,1.8c0.4,0,0.9-0.3,1.1-0.8c0.2-0.4,0.2-0.8,0.2-1.2
		c2.3,1.1,4.8,1.6,6.7,1.3c2.8-0.5,1.7-2.8,0.3-4.7c1.6,0.7,3,1.9,4.6,2.9c0.7,0.4,1.8,0.2,2.1-0.6c1.5-3.3-1.8-6.5-4.7-8.4
		c1.7,0.1,3.3,0.5,5,1.1c1,0.3,1.7,0.9,2.7,1c0.7,0,1.5-1,1.4-1.7C130.8,104.5,128.4,103,127.2,102z"/>
	<path class="st8" d="M127.2,95.7c-2-1.6-4.3-2-6.6-2.7c1-0.1,2,0,3,0.1c0,0,0.1-0.1,0.2-0.1c1.4-0.2,2.6-0.7,3.9-1.3
		c-0.1-0.1-0.2-0.2-0.3-0.3c-1.2-1-2.8-1.5-4.1-2.1c-0.1,0-0.2-0.1-0.2-0.2c-0.6-0.1-1.2-0.2-1.8-0.2c1.5-0.6,3-1,4.6-1.4
		c0.1,0,0.2,0,0.3,0c0.2,0,0.6-0.3,0.4-0.6l-0.1-0.1c-2.5-1.7-5.6-2.2-8.5-2.5c-0.6-0.1-1.6-0.2-2.8-0.2c0.2-0.2,0.5-0.4,0.7-0.7
		c0.1-0.1,0.2-0.3,0.2-0.5c-2.5-0.5-4.9-1-7.4-0.6c-1.6,0.4-3.1,1-4.7,1.5c2-1.6,3.9-3.5,0.8-4.4c-2.4-0.7-5.4,0.6-7.8,2.3
		c0.7-1.2,1.3-2.4,1.9-3.6c0.1-0.3,0.1-0.8-0.3-0.8c-2.1-0.1-4.2,0.7-6,2.2c-2-0.1-4,0.1-5.8,0.7c-1.5,0.5-3,1.2-4.5,2
		c-1.4,0.9-1.5,0.7-0.1-0.5c0.7-0.7,1.5-1.4,2.2-2.1c0.2-0.2,0.5-0.8,0.1-1c-3.5-1.9-6.4-0.7-9.3,2c0.5-1.3,0.9-1.4,1.2-2.8
		c0.1-0.4-1.1-0.2-1.4-0.1c-2.3,0.6-4.6,2.5-6,4.9c-0.7-2.3-1.5-4.4-3.7-5.7c-0.3-0.2-0.8,0.3-0.7,0.6c0.3,1.8,0.6,3.5,0.8,5.3
		c-4.3-1.8-10-4.3-14.2-1.9c-0.1,0.1-0.3,0.2-0.3,0.4l0,0c-2.7-1.6-6.1-2.1-9-1c-0.4,0.1-1,0.9-0.6,1.3c0.5,0.5,0.9,1,1.4,1.5
		c-3.5-0.4-7.3,0.5-10,2.7c-0.3,0.2-0.9,1.1-0.3,1.4c0.4,0.2,0.9,0.5,1.3,0.7c-1.9,0.9-3.7,2-5.2,3.1c-0.3,0.3-0.9,1.1-0.3,1.4
		c0.8,0.4,1.6,0.8,2.4,1c-2.1,1.3-4.3,3-4.8,5.5c-0.1,0.4,0.1,0.6,0.5,0.6c0.2,0,0.5-0.1,0.7-0.1c-1.1,1-2.1,2.2-2.6,3.5
		c-0.5,1.2,0.3,1.6,1.1,1.6c0.1,0,0.2,0.1,0.3,0c0.5-0.1,0.9-0.2,1.4-0.3c0.3-0.1,0.7-0.2,1-0.3c-1,0.9-1.6,2-1.2,2.9
		c0.7,1.5,4.6,0.9,5.6,0.8c1.6-0.1,3.1-0.3,4.5-0.6c-0.7,0.7-1.3,1.5-1.8,2.2c-0.2,0.3-0.3,0.9,0.2,0.9c4,0.8,8.2,0,12.1-1.5
		c0,0.1,0,0.1,0.1,0.2c1,2.2,5.2,1.3,8.7-0.3c-0.3,0.3-0.5,0.7-0.8,1.1c-0.2,0.2-0.3,0.7,0,0.8c1.9,0.9,4-0.2,5.7-0.9
		c1.3-0.6,2.6-1.1,3.8-1.8c-0.6,1.3-0.8,2.7-0.5,4.1c0.2,0.8,1.2,0.1,1.4-0.2c1.4-1.9,2.9-3.4,4.7-4.5c-0.5,1.3-0.9,2.6-1,4
		c0,0.2,0.1,0.4,0.3,0.4c2.4,0.2,4.4-0.8,6.6-1.9c1.5-0.8,3.1-1.4,4.5-2.3c-0.7,1.5-1.1,3.3,0.6,3.5c1.7,0.2,4-1.5,5.5-3.2
		c0.9,2,2.3,3.7,4.1,2.9c1.4-0.6,1.3-2.5,0.9-4.2c2.2,1.9,4.3,4.4,7.2,3.4c0.4-0.1,0.7-0.6,0.6-1c-0.1-0.3-0.2-0.6-0.3-0.8
		c2.1,1.3,4.5,2,6.8,1.5c0,0,0.1,0,0.1-0.1c1.4,1,3,1.7,4.7,1.8c0.4,0,0.9-0.3,1.1-0.8c0.2-0.4,0.2-0.8,0.2-1.2
		c2.3,1.1,4.8,1.6,6.7,1.3c2.8-0.5,1.7-2.8,0.3-4.7c1.6,0.7,3,1.9,4.6,2.9c0.7,0.4,1.8,0.2,2.1-0.6c1.5-3.3-1.8-6.5-4.7-8.4
		c1.7,0.1,3.3,0.5,5,1.1c1,0.3,1.7,0.9,2.7,1c0.7,0,1.5-1,1.4-1.7C130.8,98.2,128.4,96.7,127.2,95.7z"/>
</g>
</svg>
