<?xml version="1.0" encoding="utf-8"?>
<!-- Generator: Adobe Illustrator 27.4.0, SVG Export Plug-In . SVG Version: 6.00 Build 0)  -->
<!DOCTYPE svg PUBLIC "-//W3C//DTD SVG 1.1//EN" "http://www.w3.org/Graphics/SVG/1.1/DTD/svg11.dtd" [
	<!ENTITY ns_extend "http://ns.adobe.com/Extensibility/1.0/">
	<!ENTITY ns_ai "http://ns.adobe.com/AdobeIllustrator/10.0/">
	<!ENTITY ns_graphs "http://ns.adobe.com/Graphs/1.0/">
	<!ENTITY ns_vars "http://ns.adobe.com/Variables/1.0/">
	<!ENTITY ns_imrep "http://ns.adobe.com/ImageReplacement/1.0/">
	<!ENTITY ns_sfw "http://ns.adobe.com/SaveForWeb/1.0/">
	<!ENTITY ns_custom "http://ns.adobe.com/GenericCustomNamespace/1.0/">
	<!ENTITY ns_adobe_xpath "http://ns.adobe.com/XPath/1.0/">
]>
<svg version="1.1" id="Слой_1" xmlns:x="&ns_extend;" xmlns:i="&ns_ai;" xmlns:graph="&ns_graphs;"
	 xmlns="http://www.w3.org/2000/svg" xmlns:xlink="http://www.w3.org/1999/xlink" x="0px" y="0px" viewBox="0 0 144.8 153.5"
	 style="enable-background:new 0 0 144.8 153.5;" xml:space="preserve">
<style type="text/css">
	
		.st0{clip-path:url(#SVGID_00000026155044595972010400000005941572315061643934_);fill:url(#SVGID_00000096773634313081020070000006728835223156880814_);}
	
		.st1{clip-path:url(#SVGID_00000057116014419496668100000012708923433375742396_);fill:url(#SVGID_00000115478683830718784070000005548496379728246170_);}
	
		.st2{clip-path:url(#SVGID_00000151502357627180474360000008514588814620298914_);fill:url(#SVGID_00000031166832594062322020000005221866091779980466_);}
	.st3{fill:url(#SVGID_00000022526240811201992490000003803685871436958349_);}
	.st4{fill:url(#SVGID_00000140718054323758968780000011931387034191597715_);}
	.st5{fill:url(#SVGID_00000039851356941636547130000007671622079644382597_);}
	.st6{fill:#05052F;}
	.st7{fill:#F7E34B;}
	.st8{fill:url(#SVGID_00000062902750956623581090000017876181986367080106_);}
	.st9{fill:url(#SVGID_00000022524571081915158690000009763838743366634882_);}
	.st10{fill:#648F63;}
</style>
<metadata>
	<sfw  xmlns="&ns_sfw;">
		<slices></slices>
		<sliceSourceBounds  bottomLeftOrigin="true" height="92" width="83.4" x="34.8" y="74.4"></sliceSourceBounds>
	</sfw>
</metadata>
<g>
	<g>
		<g>
			<g>
				<g>
					<defs>
						<polygon id="SVGID_1_" points="42.6,66.6 49.1,104.3 93.5,104.3 99.6,66 71.2,35.8 						"/>
					</defs>
					<clipPath id="SVGID_00000152977615343405115920000017863683995797984927_">
						<use xlink:href="#SVGID_1_"  style="overflow:visible;"/>
					</clipPath>
					
						<linearGradient id="SVGID_00000163049551350748352940000010752237418922954129_" gradientUnits="userSpaceOnUse" x1="68.45" y1="86.2504" x2="68.45" y2="73.9374" gradientTransform="matrix(1 0 0 -1 0 178)">
						<stop  offset="0" style="stop-color:#C67729"/>
						<stop  offset="1" style="stop-color:#9A581E"/>
					</linearGradient>
					
						<rect x="36" y="91.7" style="clip-path:url(#SVGID_00000152977615343405115920000017863683995797984927_);fill:url(#SVGID_00000163049551350748352940000010752237418922954129_);" width="64.9" height="12.3"/>
				</g>
				<g>
					<defs>
						<polygon id="SVGID_00000111908173269532129390000009334268676959079358_" points="42.6,66.6 49.1,104.3 93.5,104.3 99.6,66 
							71.2,35.8 						"/>
					</defs>
					<clipPath id="SVGID_00000022550947089386335590000013359492427684134062_">
						<use xlink:href="#SVGID_00000111908173269532129390000009334268676959079358_"  style="overflow:visible;"/>
					</clipPath>
					
						<linearGradient id="SVGID_00000091013343737966069790000015779829550171261349_" gradientUnits="userSpaceOnUse" x1="68.85" y1="109.3" x2="68.85" y2="85" gradientTransform="matrix(1 0 0 -1 0 178)">
						<stop  offset="0" style="stop-color:#C67729"/>
						<stop  offset="1" style="stop-color:#864A1A"/>
					</linearGradient>
					
						<rect x="33.9" y="68.7" style="clip-path:url(#SVGID_00000022550947089386335590000013359492427684134062_);fill:url(#SVGID_00000091013343737966069790000015779829550171261349_);" width="69.9" height="24.3"/>
				</g>
				<g>
					<defs>
						<polygon id="SVGID_00000003784727589901103730000013053947134122748601_" points="42.6,66.6 49.1,104.3 93.5,104.3 99.6,66 
							71.2,35.8 						"/>
					</defs>
					<clipPath id="SVGID_00000017503328688275967210000001714074654170015669_">
						<use xlink:href="#SVGID_00000003784727589901103730000013053947134122748601_"  style="overflow:visible;"/>
					</clipPath>
					
						<linearGradient id="SVGID_00000126298920065873275880000004827951399903077797_" gradientUnits="userSpaceOnUse" x1="68.05" y1="143.1" x2="68.05" y2="108.0552" gradientTransform="matrix(1 0 0 -1 0 178)">
						<stop  offset="0" style="stop-color:#C47629"/>
						<stop  offset="1" style="stop-color:#864A1A"/>
					</linearGradient>
					
						<rect x="31.8" y="34.9" style="clip-path:url(#SVGID_00000017503328688275967210000001714074654170015669_);fill:url(#SVGID_00000126298920065873275880000004827951399903077797_);" width="72.5" height="35"/>
				</g>
			</g>
			
				<linearGradient id="SVGID_00000080900184553781881720000014464247284904885905_" gradientUnits="userSpaceOnUse" x1="70.85" y1="65.8865" x2="70.85" y2="57.8865" gradientTransform="matrix(1 0 0 -1 0 178)">
				<stop  offset="0" style="stop-color:#AC6422"/>
				<stop  offset="1" style="stop-color:#C67729"/>
			</linearGradient>
			<path style="fill:url(#SVGID_00000080900184553781881720000014464247284904885905_);" d="M60.8,112.1l3.1,7.4
				c0.1,0.3,0.5,0.6,0.8,0.6h12.6c0.4,0,0.7-0.2,0.8-0.6l2.8-7.2L60.8,112.1z"/>
			
				<linearGradient id="SVGID_00000003064217247768601370000011050890195179145864_" gradientUnits="userSpaceOnUse" x1="70.95" y1="75.4633" x2="70.95" y2="65.1498" gradientTransform="matrix(1 0 0 -1 0 178)">
				<stop  offset="0" style="stop-color:#EDC68C"/>
				<stop  offset="1" style="stop-color:#D69752"/>
			</linearGradient>
			<path style="fill:url(#SVGID_00000003064217247768601370000011050890195179145864_);" d="M95,112.9H46.9c-2.8,0-5.2-2.3-5.2-5.2
				l0,0c0-2.8,2.3-5.2,5.2-5.2H95c2.8,0,5.2,2.3,5.2,5.2l0,0C100.2,110.5,97.9,112.9,95,112.9z"/>
			
				<linearGradient id="SVGID_00000060709030571136176540000011860358183145962939_" gradientUnits="userSpaceOnUse" x1="70.9575" y1="149.9485" x2="70.9575" y2="109.1284" gradientTransform="matrix(1 0 0 -1 0 178)">
				<stop  offset="0" style="stop-color:#F1CB94"/>
				<stop  offset="1" style="stop-color:#C7792C"/>
			</linearGradient>
			<path style="fill:url(#SVGID_00000060709030571136176540000011860358183145962939_);" d="M106.9,59c0,0-23.4-21.5-31.2-28.7
				c-0.4-0.4-1.3-1-1.7-1.3c-2.2-1.3-5-1.2-7,0.6L35,59c-2.3,2.1-2.5,5.7-0.3,8.1l0,0c2.1,2.3,5.7,2.5,8.1,0.3l28.2-26l28.2,26
				c2.3,2.1,5.9,2,8.1-0.3l0,0C109.4,64.7,109.2,61.1,106.9,59z"/>
		</g>
		<circle class="st6" cx="71.4" cy="69" r="13.4"/>
		<circle class="st7" cx="71.2" cy="92.2" r="6"/>
	</g>
	
		<linearGradient id="SVGID_00000067195761404061483840000013521540243747281325_" gradientUnits="userSpaceOnUse" x1="104.9147" y1="93.0274" x2="115.2413" y2="93.0274" gradientTransform="matrix(1 0 0 -1 0 178)">
		<stop  offset="0" style="stop-color:#E9B936"/>
		<stop  offset="1" style="stop-color:#FAF053"/>
	</linearGradient>
	<path style="fill:url(#SVGID_00000067195761404061483840000013521540243747281325_);" d="M114.3,86.5l-7.6,2.7
		c-0.9,0.3-1.9-0.4-1.9-1.3L105,82c0-1,1-1.6,1.9-1.2l7.4,3.2C115.6,84.4,115.5,86,114.3,86.5z"/>
	
		<linearGradient id="SVGID_00000164489722522553966160000010553963908296522889_" gradientUnits="userSpaceOnUse" x1="81.2438" y1="88.3161" x2="108.0317" y2="88.3161" gradientTransform="matrix(1 0 0 -1 0 178)">
		<stop  offset="0" style="stop-color:#679164"/>
		<stop  offset="1" style="stop-color:#D1E97B"/>
	</linearGradient>
	<path style="fill:url(#SVGID_00000164489722522553966160000010553963908296522889_);" d="M107.9,89c0-0.6,0-2,0-2.6
		c0-1,0-1.7,0-2.8c0-5.2-4.2-9.4-9.4-9.4c-3.8,0-7,2.2-8.5,5.4c-0.4,0.7-1.1,2.4-1.4,6.1c-0.4,5.3-5.8,5.7-7.4,5.1
		c0,0-0.2,9.2,6.4,12.7c6.6,3.4,13.2,0.9,15.7-1.3C105.9,100,108.5,97,107.9,89z"/>
	<circle class="st10" cx="99.4" cy="82.1" r="1.4"/>
	<path class="st10" d="M89.5,95.5c-5.8,0-9.7-4-9.9-4.2c-0.6-0.6-0.6-1.6,0-2.2s1.6-0.6,2.2,0c0.1,0.1,3.5,3.4,8.1,3.2
		c4.3-0.2,6.1-2.2,7.8-4l0.2-0.2c0.6-0.6,1.6-0.7,2.2-0.1s0.7,1.6,0.1,2.2l-0.2,0.2c-1.9,2-4.4,4.7-10,5
		C89.9,95.5,89.7,95.5,89.5,95.5z"/>
</g>
</svg>
