<?xml version="1.0" encoding="utf-8"?>
<!-- Generator: Adobe Illustrator 27.4.0, SVG Export Plug-In . SVG Version: 6.00 Build 0)  -->
<!DOCTYPE svg PUBLIC "-//W3C//DTD SVG 1.1//EN" "http://www.w3.org/Graphics/SVG/1.1/DTD/svg11.dtd" [
	<!ENTITY ns_extend "http://ns.adobe.com/Extensibility/1.0/">
	<!ENTITY ns_ai "http://ns.adobe.com/AdobeIllustrator/10.0/">
	<!ENTITY ns_graphs "http://ns.adobe.com/Graphs/1.0/">
	<!ENTITY ns_vars "http://ns.adobe.com/Variables/1.0/">
	<!ENTITY ns_imrep "http://ns.adobe.com/ImageReplacement/1.0/">
	<!ENTITY ns_sfw "http://ns.adobe.com/SaveForWeb/1.0/">
	<!ENTITY ns_custom "http://ns.adobe.com/GenericCustomNamespace/1.0/">
	<!ENTITY ns_adobe_xpath "http://ns.adobe.com/XPath/1.0/">
]>
<svg version="1.1" id="Слой_1" xmlns:x="&ns_extend;" xmlns:i="&ns_ai;" xmlns:graph="&ns_graphs;"
	 xmlns="http://www.w3.org/2000/svg" xmlns:xlink="http://www.w3.org/1999/xlink" x="0px" y="0px" viewBox="0 0 144.8 153.5"
	 style="enable-background:new 0 0 144.8 153.5;" xml:space="preserve">
<style type="text/css">
	.st0{fill:#DB7A2A;}
	.st1{fill:#FFC31C;}
	.st2{clip-path:url(#SVGID_00000180339289721703155150000005892568260096459710_);fill:#EAA700;}
	.st3{fill:#EAA700;}
	.st4{fill:#B55B18;}
	.st5{fill:#FFE299;}
	.st6{fill:#6D3323;}
	.st7{fill:#4C261E;}
</style>
<metadata>
	<sfw  xmlns="&ns_sfw;">
		<slices></slices>
		<sliceSourceBounds  bottomLeftOrigin="true" height="68.2" width="88.9" x="30.1" y="86"></sliceSourceBounds>
	</sfw>
</metadata>
<g>
	<path class="st0" d="M46.2,43.4v2.5c0,1.7-1.4,3.1-3.1,3.1H30.2c-1.7,0-3.1-1.4-3.1-3.1v-2.5c0-1.7,1.4-3.1,3.1-3.1h12.9
		C44.8,40.3,46.2,41.7,46.2,43.4z"/>
	<path class="st0" d="M48.9,59.4l-2.3,0.8c-1.6,0.5-3.4-0.4-3.9-2l-4-12.4c-0.5-1.6,0.4-3.4,2-3.9l2.3-0.8c1.6-0.5,3.4,0.4,3.9,2
		l4,12.4C51.4,57.1,50.5,58.9,48.9,59.4z"/>
	<g>
		<g>
			<path id="SVGID_1_" class="st1" d="M44.1,58.6l67.8,0.1c1,0,1.7,1.1,1.3,2l-12,28.8c-0.4,1-1.4,1.7-2.5,1.7H55
				c-1,0-2-0.7-2.3-1.6L42.5,60.7C42.3,59.7,43,58.6,44.1,58.6z"/>
		</g>
		<g>
			<defs>
				<path id="SVGID_00000005241532397731698670000009108730894202554265_" d="M44.1,58.6l67.8,0.1c1,0,1.7,1.1,1.3,2l-12,28.8
					c-0.4,1-1.4,1.7-2.5,1.7H55c-1,0-2-0.7-2.3-1.6L42.5,60.7C42.3,59.7,43,58.6,44.1,58.6z"/>
			</defs>
			<clipPath id="SVGID_00000058562176732566758960000005592718124381538723_">
				<use xlink:href="#SVGID_00000005241532397731698670000009108730894202554265_"  style="overflow:visible;"/>
			</clipPath>
			<path style="clip-path:url(#SVGID_00000058562176732566758960000005592718124381538723_);fill:#EAA700;" d="M44.3,78.2l67.8,0.1
				c1,0,1.7,0.5,1.3,1l-12,14.3c-0.4,0.5-1.4,0.8-2.5,0.8H55.2c-1,0-2-0.3-2.3-0.8L42.7,79.2C42.4,78.7,43.2,78.2,44.3,78.2z"/>
		</g>
	</g>
	<path class="st3" d="M111.8,66.8H42.9c-2.3,0-4.2-1.9-4.2-4.2l0,0c0-2.3,1.9-4.2,4.2-4.2h68.9c2.3,0,4.2,1.9,4.2,4.2l0,0
		C116,64.9,114.1,66.8,111.8,66.8z"/>
	<path class="st3" d="M77.6,80.7L77.6,80.7c-1.1,0-2-0.9-2-2V66.4c0-1.1,0.9-2,2-2l0,0c1.1,0,2,0.9,2,2v12.3
		C79.6,79.8,78.7,80.7,77.6,80.7z"/>
	<path class="st3" d="M94,80.7L94,80.7c-1.1-0.2-1.8-1.3-1.5-2.4l2.7-12c0.2-1.1,1.3-1.8,2.4-1.5l0,0c1.1,0.2,1.8,1.3,1.5,2.4
		l-2.7,12C96.1,80.3,95.1,80.9,94,80.7z"/>
	<path class="st3" d="M58.8,80.4L58.8,80.4c-1.1,0.2-2.1-0.5-2.3-1.6l-2.1-12.1c-0.2-1.1,0.5-2.1,1.6-2.3l0,0
		c1.1-0.2,2.1,0.5,2.3,1.6l2.1,12.1C60.6,79.2,59.9,80.2,58.8,80.4z"/>
	<path class="st4" d="M48.9,59.4l-2.3,0.8c-1.6,0.5-3.4-0.4-3.9-2l-0.9-2.9c-0.5-1.6,0.4-3.4,2-3.9l2.3-0.8c1.6-0.5,3.4,0.4,3.9,2
		l0.9,2.9C51.4,57.1,50.5,58.9,48.9,59.4z"/>
	<path class="st5" d="M112.7,63.5H41.9c-1.8,0-3.2-1.5-3.2-3.2l0,0c0-1.8,1.5-3.2,3.2-3.2h70.8c1.8,0,3.2,1.5,3.2,3.2l0,0
		C116,62,114.5,63.5,112.7,63.5z"/>
	<circle class="st6" cx="59.2" cy="98.4" r="10.1"/>
	<circle class="st7" cx="59.3" cy="97.6" r="6.5"/>
	<circle class="st6" cx="94.5" cy="98.4" r="10.1"/>
	<circle class="st7" cx="94.5" cy="97.6" r="6.5"/>
	<path class="st3" d="M101.6,92.5H52.5c-1.7,0-3.1-1.4-3.1-3.1l0,0c0-1.7,1.4-3.1,3.1-3.1h49.1c1.7,0,3.1,1.4,3.1,3.1l0,0
		C104.7,91.1,103.3,92.5,101.6,92.5z"/>
	<path class="st5" d="M102.3,90H51.8c-1.3,0-2.4-1.1-2.4-2.4l0,0c0-1.3,1.1-2.4,2.4-2.4h50.5c1.3,0,2.4,1.1,2.4,2.4l0,0
		C104.7,88.9,103.6,90,102.3,90z"/>
</g>
</svg>
